<?xml version="1.0" encoding="UTF-8"?>
<svg xmlns="http://www.w3.org/2000/svg" xmlns:xlink="http://www.w3.org/1999/xlink" width="500pt" height="500pt" viewBox="0 0 500 500" version="1.1">
<g id="surface1">
<path style=" stroke:none;fill-rule:nonzero;fill:rgb(88.235294%,91.372549%,100%);fill-opacity:1;" d="M 250 59.523438 C 250 59.523438 202.382812 59.523438 166.667969 107.144531 C 130.953125 154.761719 125 166.667969 101.191406 178.570312 C 77.382812 190.476562 59.523438 196.429688 59.523438 255.953125 C 59.523438 315.476562 119.046875 297.617188 136.90625 351.191406 C 154.761719 404.761719 184.523438 440.476562 250 440.476562 C 315.476562 440.476562 303.570312 398.808594 345.238281 386.90625 C 386.90625 375 440.476562 351.191406 440.476562 309.523438 C 440.476562 267.855469 410.714844 250 422.617188 220.238281 C 434.523438 190.476562 440.476562 178.570312 440.476562 136.90625 C 440.476562 117.007812 428.105469 101.679688 409.742188 95.035156 C 400.316406 91.625 390.464844 90.757812 380.511719 90.945312 C 371.019531 91.132812 362.523438 95.421875 353.160156 96.511719 C 332.007812 98.976562 322.296875 82.011719 306.011719 72.441406 C 289.125 62.519531 269.339844 59.523438 250 59.523438 Z M 250 59.523438 "/>
<path style=" stroke:none;fill-rule:nonzero;fill:rgb(84.313725%,87.843137%,95.686275%);fill-opacity:1;" d="M 250.570312 410.144531 C 205.457031 410.144531 182.464844 391.457031 165.714844 341.207031 C 153.816406 305.523438 127.792969 291.046875 110.570312 281.464844 C 92.808594 271.582031 89.863281 269.542969 89.863281 255.382812 C 89.863281 217.082031 94.488281 214.804688 111.703125 206.292969 L 115.070312 204.617188 C 141.480469 191.417969 152.355469 176.691406 176.195312 144.417969 C 180.53125 138.554688 185.410156 131.941406 191.046875 124.429688 C 217.101562 89.683594 250.242188 88.714844 250.570312 88.714844 C 268.019531 88.714844 281.40625 91.59375 291.5 97.53125 C 294.433594 99.257812 297.75 102.007812 301.257812 104.921875 C 311.339844 113.296875 326.578125 125.953125 349.660156 125.953125 C 352.132812 125.953125 354.660156 125.804688 357.179688 125.511719 C 363.601562 124.761719 369.207031 123.203125 373.71875 121.945312 C 376.714844 121.113281 380.105469 120.167969 381.65625 120.136719 L 383.632812 120.117188 C 390.523438 120.117188 395.785156 120.863281 400.195312 122.457031 C 407.554688 125.117188 411.285156 129.785156 411.285156 136.339844 C 411.285156 169.546875 407.617188 178.65625 397.816406 203 L 395.558594 208.617188 C 384.46875 236.339844 394.53125 258.730469 401.867188 275.082031 C 406.921875 286.339844 411.292969 296.058594 411.292969 308.957031 C 411.292969 325.796875 382.382812 344.941406 337.636719 357.71875 C 311.480469 365.191406 298.703125 380.917969 289.375 392.398438 C 279.464844 404.582031 274.941406 410.144531 250.570312 410.144531 Z M 250.570312 410.144531 "/>
<path style=" stroke:none;fill-rule:nonzero;fill:rgb(80.784314%,85.098039%,92.941176%);fill-opacity:1;" d="M 250.570312 380.382812 C 222.058594 380.382812 207.894531 373.632812 193.945312 331.796875 C 178.394531 285.144531 143.683594 265.832031 125.035156 255.457031 C 123.5 254.605469 121.738281 254.09375 120.382812 252.941406 C 118.875 251.660156 118.808594 249.707031 119.089844 247.882812 C 119.492188 245.257812 119.886719 242.683594 120 240.023438 C 120.09375 237.882812 120.882812 235.929688 122.46875 234.464844 C 124.839844 232.28125 128.101562 231.40625 130.90625 229.945312 C 132.867188 228.921875 134.816406 227.867188 136.738281 226.773438 C 140.339844 224.714844 143.863281 222.519531 147.273438 220.15625 C 153.65625 215.738281 159.613281 210.742188 165.125 205.292969 C 170.851562 199.625 176.105469 193.5 181.136719 187.214844 C 187.03125 179.84375 192.636719 172.25 198.242188 164.660156 C 198.875 163.808594 199.5 162.957031 200.125 162.113281 C 204.519531 156.167969 209.316406 149.667969 214.851562 142.292969 C 230.332031 121.648438 248.519531 118.820312 251.519531 118.480469 C 262.714844 118.570312 271.308594 120.195312 276.410156 123.191406 C 277.441406 123.832031 280.320312 126.230469 282.230469 127.816406 C 293.976562 137.570312 315.828125 155.714844 349.65625 155.714844 C 353.273438 155.714844 356.964844 155.5 360.617188 155.070312 L 361.078125 155.019531 C 371.769531 153.757812 380.351562 163.988281 376.964844 174.207031 C 375.308594 179.191406 373.105469 184.660156 370.203125 191.875 L 367.933594 197.523438 C 352.144531 237.007812 366.820312 269.703125 374.707031 287.269531 C 374.742188 287.351562 374.78125 287.429688 374.816406 287.511719 C 379.605469 298.191406 375.054688 310.660156 364.589844 315.90625 C 356.292969 320.070312 344.820312 324.714844 329.453125 329.105469 C 294.285156 339.15625 276.75 360.738281 266.214844 373.703125 C 262.828125 377.867188 257.804688 380.285156 252.433594 380.375 C 251.851562 380.375 251.226562 380.382812 250.570312 380.382812 Z M 250.570312 380.382812 "/>
<path style=" stroke:none;fill-rule:nonzero;fill:rgb(46.666667%,82.745098%,96.862745%);fill-opacity:1;" d="M 372.023438 394.921875 C 372.023438 398.210938 369.359375 400.875 366.070312 400.875 C 362.785156 400.875 360.117188 398.210938 360.117188 394.921875 C 360.117188 391.636719 362.785156 388.96875 366.070312 388.96875 C 369.359375 388.96875 372.023438 391.636719 372.023438 394.921875 Z M 372.023438 394.921875 "/>
<path style=" stroke:none;fill-rule:nonzero;fill:rgb(46.666667%,82.745098%,96.862745%);fill-opacity:1;" d="M 89.285156 341.917969 C 89.285156 345.203125 86.621094 347.867188 83.332031 347.867188 C 80.046875 347.867188 77.382812 345.203125 77.382812 341.917969 C 77.382812 338.628906 80.046875 335.964844 83.332031 335.964844 C 86.621094 335.964844 89.285156 338.628906 89.285156 341.917969 Z M 89.285156 341.917969 "/>
<path style=" stroke:none;fill-rule:nonzero;fill:rgb(46.666667%,82.745098%,96.862745%);fill-opacity:1;" d="M 446.429688 315.476562 C 446.429688 318.761719 443.761719 321.429688 440.476562 321.429688 C 437.1875 321.429688 434.523438 318.761719 434.523438 315.476562 C 434.523438 312.1875 437.1875 309.523438 440.476562 309.523438 C 443.761719 309.523438 446.429688 312.1875 446.429688 315.476562 Z M 446.429688 315.476562 "/>
<path style=" stroke:none;fill-rule:nonzero;fill:rgb(46.666667%,82.745098%,96.862745%);fill-opacity:1;" d="M 113.09375 98.113281 C 113.09375 101.402344 110.429688 104.066406 107.144531 104.066406 C 103.855469 104.066406 101.191406 101.402344 101.191406 98.113281 C 101.191406 94.824219 103.855469 92.160156 107.144531 92.160156 C 110.429688 92.160156 113.09375 94.824219 113.09375 98.113281 Z M 113.09375 98.113281 "/>
<path style=" stroke:none;fill-rule:nonzero;fill:rgb(77.647059%,68.235294%,100%);fill-opacity:1;" d="M 409.601562 149.367188 C 409.714844 149.882812 410.179688 150.25 410.714844 150.25 C 411.25 150.25 411.707031 149.882812 411.828125 149.367188 C 411.851562 149.296875 414.023438 140.988281 419.976562 140.988281 C 420.625 140.988281 421.132812 140.476562 421.132812 139.832031 C 421.132812 139.191406 420.617188 138.679688 419.976562 138.679688 C 414.03125 138.679688 411.851562 130.367188 411.828125 130.296875 C 411.570312 129.257812 409.855469 129.257812 409.605469 130.296875 C 409.582031 130.367188 407.410156 138.679688 401.457031 138.679688 C 400.808594 138.679688 400.304688 139.191406 400.304688 139.832031 C 400.304688 140.476562 400.816406 140.988281 401.457031 140.988281 C 407.40625 140.988281 409.578125 149.296875 409.601562 149.367188 Z M 305.394531 52.160156 C 299.445312 52.160156 297.269531 43.851562 297.242188 43.78125 C 296.988281 42.738281 295.273438 42.738281 295.023438 43.78125 C 295 43.851562 292.828125 52.160156 286.875 52.160156 C 286.226562 52.160156 285.714844 52.671875 285.714844 53.316406 C 285.714844 53.957031 286.226562 54.46875 286.867188 54.46875 C 292.816406 54.46875 294.992188 62.78125 295.019531 62.851562 C 295.132812 63.363281 295.59375 63.730469 296.132812 63.730469 C 296.667969 63.730469 297.125 63.363281 297.242188 62.851562 C 297.269531 62.78125 299.441406 54.46875 305.394531 54.46875 C 306.042969 54.46875 306.546875 53.957031 306.546875 53.316406 C 306.546875 52.671875 306.035156 52.160156 305.394531 52.160156 Z M 167.78125 426.15625 C 167.804688 426.082031 169.976562 417.773438 175.929688 417.773438 C 176.578125 417.773438 177.082031 417.261719 177.082031 416.617188 C 177.082031 415.976562 176.570312 415.464844 175.929688 415.464844 C 169.980469 415.464844 167.804688 407.15625 167.78125 407.082031 C 167.523438 406.042969 165.808594 406.042969 165.558594 407.082031 C 165.535156 407.15625 163.363281 415.464844 157.410156 415.464844 C 156.761719 415.464844 156.257812 415.976562 156.257812 416.617188 C 156.257812 417.261719 156.769531 417.773438 157.410156 417.773438 C 163.355469 417.773438 165.535156 426.082031 165.558594 426.15625 C 165.671875 426.667969 166.136719 427.035156 166.671875 427.035156 C 167.207031 427.035156 167.660156 426.667969 167.78125 426.15625 Z M 88.132812 147.601562 C 82.183594 147.601562 80.007812 139.292969 79.980469 139.21875 C 79.726562 138.179688 78.011719 138.179688 77.761719 139.21875 C 77.738281 139.292969 75.566406 147.601562 69.613281 147.601562 C 68.964844 147.601562 68.457031 148.113281 68.457031 148.757812 C 68.457031 149.398438 68.96875 149.910156 69.613281 149.910156 C 75.558594 149.910156 77.738281 158.21875 77.761719 158.292969 C 77.875 158.804688 78.339844 159.171875 78.875 159.171875 C 79.410156 159.171875 79.867188 158.804688 79.988281 158.292969 C 80.011719 158.21875 82.183594 149.910156 88.136719 149.910156 C 88.785156 149.910156 89.292969 149.398438 89.292969 148.757812 C 89.292969 148.113281 88.773438 147.601562 88.132812 147.601562 Z M 88.132812 147.601562 "/>
<path style=" stroke:none;fill-rule:nonzero;fill:rgb(49.411765%,52.54902%,54.901961%);fill-opacity:1;" d="M 250 89.285156 C 217.558594 89.285156 186.308594 98.929688 159.582031 117.144531 C 158.15625 118.09375 156.367188 118.394531 154.703125 117.917969 C 153.632812 117.617188 152.441406 117.320312 151.132812 116.90625 C 145.117188 115.117188 132.5 111.429688 130.296875 115.773438 C 127.738281 120.953125 125.773438 132.679688 125.058594 147.144531 C 125 148.394531 124.523438 149.582031 123.75 150.535156 C 108.929688 169.40625 98.691406 190.714844 93.453125 213.511719 C 90.65625 225.296875 89.285156 237.558594 89.285156 250 C 89.285156 283.035156 99.226562 314.761719 118.09375 341.785156 C 118.75 342.738281 119.105469 343.808594 119.167969 344.941406 C 119.820312 362.320312 121.726562 376.132812 124.703125 385 C 126.070312 389.226562 143.09375 388.15625 152.203125 387.558594 C 156.308594 387.320312 160.355469 387.023438 164.167969 386.964844 C 164.226562 386.964844 164.226562 386.964844 164.285156 386.964844 C 165.355469 386.964844 166.429688 387.261719 167.382812 387.796875 C 192.261719 402.796875 220.832031 410.714844 250 410.714844 C 288.035156 410.714844 323.035156 397.441406 350.59375 375.179688 C 387.261719 345.773438 410.714844 300.59375 410.714844 250 C 410.714844 161.367188 338.632812 89.285156 250 89.285156 Z M 291.667969 130.953125 C 301.488281 130.953125 309.523438 138.988281 309.523438 148.808594 L 297.617188 148.808594 C 297.617188 145.535156 294.941406 142.855469 291.667969 142.855469 C 288.394531 142.855469 285.714844 145.535156 285.714844 148.808594 L 273.808594 148.808594 C 273.808594 138.988281 281.84375 130.953125 291.667969 130.953125 Z M 285.714844 315.476562 C 279.167969 315.476562 273.808594 320.832031 273.808594 327.382812 L 261.90625 327.382812 C 261.90625 314.226562 272.558594 303.570312 285.714844 303.570312 C 298.867188 303.570312 309.523438 314.226562 309.523438 327.382812 C 309.523438 340.535156 298.867188 351.191406 285.714844 351.191406 L 285.714844 339.285156 C 292.261719 339.285156 297.617188 333.929688 297.617188 327.382812 C 297.617188 320.832031 292.261719 315.476562 285.714844 315.476562 Z M 190.476562 351.191406 L 190.476562 363.09375 C 180.65625 363.09375 172.617188 355.058594 172.617188 345.238281 C 172.617188 335.417969 180.65625 327.382812 190.476562 327.382812 L 190.476562 339.285156 C 187.203125 339.285156 184.523438 341.964844 184.523438 345.238281 C 184.523438 348.511719 187.203125 351.191406 190.476562 351.191406 Z M 279.761719 208.332031 C 292.917969 208.332031 303.570312 218.988281 303.570312 232.144531 C 303.570312 245.296875 292.917969 255.953125 279.761719 255.953125 C 266.605469 255.953125 255.953125 245.296875 255.953125 232.144531 C 255.953125 218.988281 266.605469 208.332031 279.761719 208.332031 Z M 184.523438 136.90625 C 200.953125 136.90625 214.285156 150.238281 214.285156 166.667969 L 202.382812 166.667969 C 202.382812 156.84375 194.34375 148.808594 184.523438 148.808594 C 174.703125 148.808594 166.667969 156.84375 166.667969 166.667969 C 166.667969 176.488281 174.703125 184.523438 184.523438 184.523438 L 184.523438 196.429688 C 168.09375 196.429688 154.761719 183.09375 154.761719 166.667969 C 154.761719 150.238281 168.09375 136.90625 184.523438 136.90625 Z M 166.667969 238.09375 C 176.488281 238.09375 184.523438 246.132812 184.523438 255.953125 L 172.617188 255.953125 C 172.617188 252.679688 169.941406 250 166.667969 250 C 163.394531 250 160.714844 252.679688 160.714844 255.953125 C 160.714844 259.226562 163.394531 261.90625 166.667969 261.90625 L 166.667969 273.808594 C 156.84375 273.808594 148.808594 265.773438 148.808594 255.953125 C 148.808594 246.132812 156.84375 238.09375 166.667969 238.09375 Z M 345.238281 273.808594 L 345.238281 261.90625 C 361.667969 261.90625 375 248.570312 375 232.144531 C 375 215.714844 361.667969 202.382812 345.238281 202.382812 L 345.238281 190.476562 C 368.214844 190.476562 386.90625 209.167969 386.90625 232.144531 C 386.90625 255.117188 368.214844 273.808594 345.238281 273.808594 Z M 345.238281 273.808594 "/>
<path style=" stroke:none;fill-rule:nonzero;fill:rgb(63.529412%,67.843137%,72.156863%);fill-opacity:1;" d="M 291.667969 232.144531 C 291.667969 238.71875 286.335938 244.046875 279.761719 244.046875 C 273.1875 244.046875 267.855469 238.71875 267.855469 232.144531 C 267.855469 225.566406 273.1875 220.238281 279.761719 220.238281 C 286.335938 220.238281 291.667969 225.566406 291.667969 232.144531 Z M 291.667969 232.144531 "/>
<path style=" stroke:none;fill-rule:nonzero;fill:rgb(63.529412%,67.843137%,72.156863%);fill-opacity:1;" d="M 410.714844 250 C 410.714844 300.59375 387.261719 345.773438 350.59375 375.179688 C 328.75 384.105469 304.820312 389.046875 279.761719 389.046875 C 180.417969 389.046875 99.167969 311.429688 93.453125 213.511719 C 98.691406 190.714844 108.929688 169.40625 123.75 150.535156 C 124.523438 149.582031 125 148.394531 125.058594 147.144531 C 125.773438 132.679688 127.738281 120.953125 130.296875 115.773438 C 132.5 111.429688 145.117188 115.117188 151.132812 116.90625 C 152.441406 117.320312 153.632812 117.617188 154.703125 117.917969 C 156.367188 118.394531 158.15625 118.09375 159.582031 117.144531 C 186.308594 98.929688 217.558594 89.285156 250 89.285156 C 338.632812 89.285156 410.714844 161.367188 410.714844 250 Z M 410.714844 250 "/>
<path style=" stroke:none;fill-rule:nonzero;fill:rgb(79.215686%,83.921569%,87.843137%);fill-opacity:1;" d="M 346.574219 148.339844 C 330.953125 130.773438 310.78125 123.210938 301.515625 131.449219 C 292.253906 139.683594 297.40625 160.605469 313.027344 178.171875 C 328.648438 195.738281 348.820312 203.304688 358.085938 195.066406 C 367.351562 186.828125 362.195312 165.910156 346.574219 148.339844 Z M 346.574219 148.339844 "/>
<path style=" stroke:none;fill-rule:nonzero;fill:rgb(24.313725%,26.27451%,32.941176%);fill-opacity:1;" d="M 375 232.144531 C 375 215.714844 361.667969 202.382812 345.238281 202.382812 L 345.238281 190.476562 C 368.214844 190.476562 386.90625 209.167969 386.90625 232.144531 C 386.90625 255.117188 368.214844 273.808594 345.238281 273.808594 L 345.238281 261.90625 C 361.667969 261.90625 375 248.570312 375 232.144531 Z M 291.667969 130.953125 C 301.488281 130.953125 309.523438 138.988281 309.523438 148.808594 L 297.617188 148.808594 C 297.617188 145.535156 294.941406 142.855469 291.667969 142.855469 C 288.394531 142.855469 285.714844 145.535156 285.714844 148.808594 L 273.808594 148.808594 C 273.808594 138.988281 281.84375 130.953125 291.667969 130.953125 Z M 285.714844 315.476562 C 279.167969 315.476562 273.808594 320.832031 273.808594 327.382812 L 261.90625 327.382812 C 261.90625 314.226562 272.558594 303.570312 285.714844 303.570312 C 298.867188 303.570312 309.523438 314.226562 309.523438 327.382812 C 309.523438 340.535156 298.867188 351.191406 285.714844 351.191406 L 285.714844 339.285156 C 292.261719 339.285156 297.617188 333.929688 297.617188 327.382812 C 297.617188 320.832031 292.261719 315.476562 285.714844 315.476562 Z M 267.855469 232.144531 C 267.855469 238.691406 273.214844 244.046875 279.761719 244.046875 C 286.308594 244.046875 291.667969 238.691406 291.667969 232.144531 C 291.667969 225.59375 286.308594 220.238281 279.761719 220.238281 C 273.214844 220.238281 267.855469 225.59375 267.855469 232.144531 Z M 255.953125 232.144531 C 255.953125 218.988281 266.605469 208.332031 279.761719 208.332031 C 292.917969 208.332031 303.570312 218.988281 303.570312 232.144531 C 303.570312 245.296875 292.917969 255.953125 279.761719 255.953125 C 266.605469 255.953125 255.953125 245.296875 255.953125 232.144531 Z M 184.523438 345.238281 C 184.523438 348.511719 187.203125 351.191406 190.476562 351.191406 L 190.476562 363.09375 C 180.65625 363.09375 172.617188 355.058594 172.617188 345.238281 C 172.617188 335.417969 180.65625 327.382812 190.476562 327.382812 L 190.476562 339.285156 C 187.203125 339.285156 184.523438 341.964844 184.523438 345.238281 Z M 184.523438 148.808594 C 174.703125 148.808594 166.667969 156.84375 166.667969 166.667969 C 166.667969 176.488281 174.703125 184.523438 184.523438 184.523438 L 184.523438 196.429688 C 168.09375 196.429688 154.761719 183.09375 154.761719 166.667969 C 154.761719 150.238281 168.09375 136.90625 184.523438 136.90625 C 200.953125 136.90625 214.285156 150.238281 214.285156 166.667969 L 202.382812 166.667969 C 202.382812 156.84375 194.34375 148.808594 184.523438 148.808594 Z M 148.808594 255.953125 C 148.808594 246.132812 156.84375 238.09375 166.667969 238.09375 C 176.488281 238.09375 184.523438 246.132812 184.523438 255.953125 L 172.617188 255.953125 C 172.617188 252.679688 169.941406 250 166.667969 250 C 163.394531 250 160.714844 252.679688 160.714844 255.953125 C 160.714844 259.226562 163.394531 261.90625 166.667969 261.90625 L 166.667969 273.808594 C 156.84375 273.808594 148.808594 265.773438 148.808594 255.953125 Z M 148.808594 255.953125 "/>
<path style=" stroke:none;fill-rule:nonzero;fill:rgb(24.313725%,26.27451%,32.941176%);fill-opacity:1;" d="M 125.058594 147.144531 C 125 148.394531 124.523438 149.582031 123.75 150.535156 C 101.191406 179.167969 89.285156 213.570312 89.285156 250 C 89.285156 283.035156 99.226562 314.761719 118.09375 341.785156 C 118.75 342.738281 119.105469 343.808594 119.167969 344.941406 C 119.820312 362.320312 121.726562 376.132812 124.703125 385 C 126.070312 389.226562 143.09375 388.15625 152.203125 387.558594 C 156.308594 387.320312 160.355469 387.023438 164.167969 386.964844 C 164.226562 386.964844 164.226562 386.964844 164.285156 386.964844 C 165.355469 386.964844 166.429688 387.261719 167.382812 387.796875 C 192.261719 402.796875 220.832031 410.714844 250 410.714844 C 338.632812 410.714844 410.714844 338.632812 410.714844 250 C 410.714844 161.367188 338.632812 89.285156 250 89.285156 C 217.558594 89.285156 186.308594 98.929688 159.582031 117.144531 C 158.15625 118.09375 156.367188 118.394531 154.703125 117.917969 C 153.632812 117.617188 152.441406 117.320312 151.132812 116.90625 C 145.117188 115.117188 132.5 111.429688 130.296875 115.773438 C 127.738281 120.953125 125.773438 132.679688 125.058594 147.144531 Z M 113.273438 144.644531 C 113.808594 134.882812 115.417969 119.046875 119.644531 110.417969 C 126.25 97.261719 143.929688 102.441406 154.523438 105.476562 C 154.761719 105.59375 155 105.65625 155.238281 105.714844 C 183.394531 87.144531 216.132812 77.382812 250 77.382812 C 345.179688 77.382812 422.617188 154.820312 422.617188 250 C 422.617188 345.179688 345.179688 422.617188 250 422.617188 C 219.285156 422.617188 189.167969 414.40625 162.738281 398.929688 C 159.582031 399.046875 156.308594 399.226562 152.976562 399.464844 C 135.59375 400.535156 117.679688 401.726562 113.394531 388.75 C 109.40625 376.785156 107.855469 359.882812 107.320312 347.144531 C 87.738281 318.453125 77.382812 284.882812 77.382812 250 C 77.382812 211.488281 89.761719 175.117188 113.273438 144.644531 Z M 113.273438 144.644531 "/>
</g>
</svg>
