<?xml version="1.0" encoding="UTF-8"?>
<svg xmlns="http://www.w3.org/2000/svg" xmlns:xlink="http://www.w3.org/1999/xlink" width="650pt" height="650pt" viewBox="0 0 650 650" version="1.1">
<g id="surface1">
<path style=" stroke:none;fill-rule:nonzero;fill:rgb(16.862745%,25.882353%,33.333333%);fill-opacity:1;" d="M 157.28125 446.6875 C 147.824219 446.6875 140.769531 454.1875 139.429688 463.332031 L 138.4375 463.332031 L 138.4375 487.234375 L 282.09375 487.234375 C 283.925781 487.257812 285.628906 486.296875 286.550781 484.714844 C 287.476562 483.132812 287.476562 481.175781 286.550781 479.59375 C 285.628906 478.011719 283.925781 477.050781 282.09375 477.078125 L 148.59375 477.078125 L 148.59375 473.488281 L 148.675781 473.488281 L 148.613281 468.351562 C 148.605469 467.628906 148.59375 467.730469 148.59375 468.167969 L 148.59375 465.765625 C 148.59375 460.679688 152.421875 456.839844 157.28125 456.839844 L 282.09375 456.839844 C 283.925781 456.867188 285.628906 455.90625 286.550781 454.324219 C 287.472656 452.742188 287.472656 450.785156 286.550781 449.203125 C 285.628906 447.621094 283.925781 446.660156 282.09375 446.683594 L 157.28125 446.683594 Z M 157.28125 446.6875 "/>
<path style=" stroke:none;fill-rule:nonzero;fill:rgb(16.862745%,25.882353%,33.333333%);fill-opacity:1;" d="M 194.296875 264.015625 C 185.945312 264.015625 179.0625 270.898438 179.0625 279.25 C 179.0625 287.601562 185.945312 294.484375 194.296875 294.484375 L 245.078125 294.484375 C 253.429688 294.484375 260.3125 287.601562 260.3125 279.25 C 260.3125 270.898438 253.429688 264.015625 245.078125 264.015625 Z M 194.296875 274.171875 L 245.078125 274.171875 C 247.980469 274.171875 250.15625 276.347656 250.15625 279.25 C 250.15625 282.148438 247.980469 284.328125 245.078125 284.328125 L 194.296875 284.328125 C 191.398438 284.328125 189.21875 282.148438 189.21875 279.25 C 189.21875 276.347656 191.398438 274.171875 194.296875 274.171875 Z M 194.296875 274.171875 "/>
<path style=" stroke:none;fill-rule:nonzero;fill:rgb(16.862745%,25.882353%,33.333333%);fill-opacity:1;" d="M 179.0625 416.199219 C 167.898438 416.199219 158.75 425.347656 158.75 436.511719 C 158.75 447.675781 167.898438 456.824219 179.0625 456.824219 L 260.3125 456.824219 C 262.3125 456.824219 264.269531 456.558594 266.144531 455.992188 L 263.230469 446.25 C 262.332031 446.515625 261.363281 446.667969 260.3125 446.667969 L 179.0625 446.667969 C 173.347656 446.667969 168.90625 442.226562 168.90625 436.511719 C 168.90625 430.796875 173.347656 426.355469 179.0625 426.355469 L 260.3125 426.355469 C 261.15625 426.355469 261.957031 426.46875 262.734375 426.648438 L 265.152344 416.792969 C 263.601562 416.414062 261.976562 416.191406 260.3125 416.191406 L 179.0625 416.191406 Z M 179.0625 416.199219 "/>
<path style=" stroke:none;fill-rule:nonzero;fill:rgb(16.862745%,25.882353%,33.333333%);fill-opacity:1;" d="M 198.285156 284.328125 C 196.925781 284.328125 195.628906 284.871094 194.671875 285.835938 C 193.71875 286.800781 193.191406 288.109375 193.207031 289.464844 C 193.394531 305.289062 193.636719 311.371094 192.769531 325.605469 C 192.617188 327.441406 193.472656 329.214844 195 330.242188 C 196.53125 331.269531 198.496094 331.386719 200.136719 330.550781 C 201.777344 329.714844 202.835938 328.054688 202.90625 326.214844 C 203.667969 313.714844 203.457031 306.128906 203.304688 294.476562 L 236.449219 294.476562 C 236.242188 339.570312 240.328125 378.519531 249.5625 415.597656 L 189.835938 415.597656 C 194.300781 397.710938 197.988281 379.609375 200.148438 360.394531 C 200.460938 357.605469 198.453125 355.09375 195.667969 354.78125 C 192.878906 354.46875 190.363281 356.476562 190.054688 359.261719 C 187.691406 380.234375 184.003906 400.007812 178.84375 419.367188 C 178.4375 420.890625 178.761719 422.515625 179.722656 423.769531 C 180.683594 425.019531 182.167969 425.753906 183.746094 425.753906 L 255.632812 425.753906 C 257.207031 425.753906 258.695312 425.019531 259.652344 423.769531 C 260.613281 422.515625 260.9375 420.890625 260.53125 419.367188 C 250.03125 379.96875 245.804688 338.796875 246.386719 289.460938 C 246.402344 288.101562 245.875 286.796875 244.921875 285.832031 C 243.96875 284.863281 242.667969 284.320312 241.308594 284.320312 L 198.285156 284.320312 Z M 196.402344 339.253906 C 193.792969 339.351562 191.683594 341.410156 191.519531 344.015625 C 191.476562 344.554688 191.476562 345.148438 191.480469 345.246094 C 191.484375 345.347656 191.488281 344.96875 191.460938 345.347656 C 191.25 347.1875 192.054688 348.996094 193.5625 350.066406 C 195.074219 351.140625 197.046875 351.308594 198.714844 350.5 C 200.382812 349.695312 201.476562 348.046875 201.578125 346.199219 C 201.625 345.660156 201.640625 345.0625 201.636719 344.929688 C 201.632812 344.796875 201.609375 345.171875 201.636719 344.828125 C 201.773438 343.375 201.277344 341.929688 200.277344 340.867188 C 199.273438 339.800781 197.859375 339.222656 196.402344 339.273438 Z M 196.402344 339.253906 "/>
<path style=" stroke:none;fill-rule:nonzero;fill:rgb(16.862745%,25.882353%,33.333333%);fill-opacity:1;" d="M 219.6875 213.035156 C 202.921875 213.035156 189.21875 226.738281 189.21875 243.503906 C 189.21875 260.269531 202.921875 273.972656 219.6875 273.972656 C 236.457031 273.972656 250.15625 260.269531 250.15625 243.503906 C 250.15625 226.738281 236.457031 213.035156 219.6875 213.035156 Z M 219.6875 223.191406 C 230.96875 223.191406 240 232.226562 240 243.503906 C 240 254.78125 230.96875 263.816406 219.6875 263.816406 C 208.410156 263.816406 199.375 254.78125 199.375 243.503906 C 199.375 232.226562 208.410156 223.191406 219.6875 223.191406 Z M 219.6875 223.191406 "/>
<path style=" stroke:none;fill-rule:nonzero;fill:rgb(16.862745%,25.882353%,33.333333%);fill-opacity:1;" d="M 360.804688 446.6875 C 358.972656 446.664062 357.269531 447.625 356.347656 449.207031 C 355.421875 450.789062 355.421875 452.746094 356.347656 454.328125 C 357.269531 455.910156 358.972656 456.871094 360.804688 456.84375 L 485.636719 456.84375 C 490.496094 456.84375 494.304688 460.683594 494.304688 465.769531 L 494.304688 468.171875 C 494.304688 467.550781 494.292969 467.703125 494.285156 468.332031 L 494.203125 473.492188 L 494.304688 473.492188 L 494.304688 477.082031 L 360.804688 477.082031 C 358.972656 477.054688 357.269531 478.015625 356.347656 479.597656 C 355.421875 481.179688 355.421875 483.136719 356.347656 484.71875 C 357.269531 486.300781 358.972656 487.261719 360.804688 487.238281 L 504.460938 487.238281 L 504.460938 463.335938 L 503.46875 463.335938 C 502.128906 454.191406 495.09375 446.691406 485.636719 446.691406 L 360.804688 446.691406 Z M 360.804688 446.6875 "/>
<path style=" stroke:none;fill-rule:nonzero;fill:rgb(16.862745%,25.882353%,33.333333%);fill-opacity:1;" d="M 397.820312 264.015625 C 389.46875 264.015625 382.585938 270.898438 382.585938 279.25 C 382.585938 287.601562 389.46875 294.484375 397.820312 294.484375 L 448.601562 294.484375 C 456.953125 294.484375 463.835938 287.601562 463.835938 279.25 C 463.835938 270.898438 456.953125 264.015625 448.601562 264.015625 Z M 397.820312 274.171875 L 448.601562 274.171875 C 451.5 274.171875 453.679688 276.347656 453.679688 279.25 C 453.679688 282.148438 451.5 284.328125 448.601562 284.328125 L 397.820312 284.328125 C 394.917969 284.328125 392.742188 282.148438 392.742188 279.25 C 392.742188 276.347656 394.917969 274.171875 397.820312 274.171875 Z M 397.820312 274.171875 "/>
<path style=" stroke:none;fill-rule:nonzero;fill:rgb(16.862745%,25.882353%,33.333333%);fill-opacity:1;" d="M 382.585938 416.21875 L 382.585938 426.375 L 463.835938 426.375 C 469.550781 426.375 473.992188 430.816406 473.992188 436.53125 C 473.992188 442.246094 469.550781 446.6875 463.835938 446.6875 L 382.585938 446.6875 L 382.585938 456.84375 L 463.835938 456.84375 C 475 456.84375 484.148438 447.695312 484.148438 436.53125 C 484.148438 425.367188 475 416.21875 463.835938 416.21875 Z M 382.585938 416.21875 "/>
<path style=" stroke:none;fill-rule:nonzero;fill:rgb(16.862745%,25.882353%,33.333333%);fill-opacity:1;" d="M 401.589844 284.328125 C 400.230469 284.328125 398.929688 284.871094 397.976562 285.835938 C 397.023438 286.800781 396.496094 288.109375 396.511719 289.464844 C 397.09375 338.800781 392.867188 379.976562 382.367188 419.375 C 381.960938 420.898438 382.285156 422.523438 383.246094 423.773438 C 384.203125 425.023438 385.691406 425.757812 387.265625 425.761719 L 459.152344 425.761719 C 460.730469 425.757812 462.214844 425.023438 463.175781 423.773438 C 464.136719 422.523438 464.460938 420.898438 464.054688 419.375 C 458.894531 400.011719 455.207031 380.238281 452.847656 359.269531 C 452.535156 356.480469 450.019531 354.472656 447.230469 354.785156 C 444.445312 355.097656 442.4375 357.613281 442.75 360.398438 C 444.910156 379.613281 448.597656 397.714844 453.0625 415.605469 L 393.335938 415.605469 C 402.570312 378.523438 406.65625 339.574219 406.449219 294.484375 L 439.59375 294.484375 C 439.441406 306.132812 439.230469 313.722656 439.992188 326.222656 C 440.0625 328.0625 441.121094 329.71875 442.761719 330.554688 C 444.402344 331.390625 446.367188 331.273438 447.898438 330.246094 C 449.425781 329.222656 450.28125 327.445312 450.128906 325.613281 C 449.261719 311.378906 449.503906 305.292969 449.691406 289.46875 C 449.707031 288.113281 449.179688 286.804688 448.226562 285.839844 C 447.273438 284.875 445.972656 284.332031 444.613281 284.332031 L 401.589844 284.332031 Z M 446.339844 339.253906 C 444.90625 339.246094 443.535156 339.847656 442.570312 340.90625 C 441.601562 341.964844 441.128906 343.382812 441.261719 344.808594 C 441.289062 345.132812 441.265625 344.707031 441.261719 344.910156 C 441.257812 345.042969 441.277344 345.640625 441.320312 346.179688 C 441.421875 348.027344 442.515625 349.675781 444.183594 350.480469 C 445.851562 351.285156 447.824219 351.121094 449.335938 350.046875 C 450.84375 348.972656 451.648438 347.164062 451.4375 345.324219 C 451.410156 344.992188 451.414062 345.324219 451.417969 345.222656 C 451.421875 345.121094 451.421875 344.535156 451.378906 343.996094 C 451.210938 341.328125 449.007812 339.25 446.339844 339.234375 Z M 446.339844 339.253906 "/>
<path style=" stroke:none;fill-rule:nonzero;fill:rgb(16.862745%,25.882353%,33.333333%);fill-opacity:1;" d="M 423.210938 213.035156 C 406.441406 213.035156 392.742188 226.738281 392.742188 243.503906 C 392.742188 260.269531 406.441406 273.972656 423.210938 273.972656 C 439.976562 273.972656 453.679688 260.269531 453.679688 243.503906 C 453.679688 226.738281 439.976562 213.035156 423.210938 213.035156 Z M 423.210938 223.191406 C 434.488281 223.191406 443.523438 232.226562 443.523438 243.503906 C 443.523438 254.78125 434.488281 263.816406 423.210938 263.816406 C 411.933594 263.816406 402.898438 254.78125 402.898438 243.503906 C 402.898438 232.226562 411.933594 223.191406 423.210938 223.191406 Z M 423.210938 223.191406 "/>
<path style=" stroke:none;fill-rule:nonzero;fill:rgb(16.862745%,25.882353%,33.333333%);fill-opacity:1;" d="M 294.691406 254.828125 C 291.886719 254.839844 289.621094 257.125 289.632812 259.929688 C 289.488281 275.078125 288.984375 289.6875 288.085938 303.867188 C 287.949219 305.6875 288.800781 307.445312 290.320312 308.460938 C 291.839844 309.480469 293.789062 309.601562 295.421875 308.785156 C 297.058594 307.964844 298.125 306.332031 298.222656 304.503906 C 299.132812 290.125 299.644531 275.347656 299.789062 260.03125 C 299.820312 258.660156 299.296875 257.335938 298.335938 256.355469 C 297.375 255.378906 296.0625 254.828125 294.691406 254.832031 Z M 355.371094 254.929688 C 352.574219 255.007812 350.363281 257.332031 350.429688 260.128906 C 351.054688 320.21875 357.609375 372.316406 371.199219 422.410156 C 371.632812 424.207031 373.007812 425.625 374.789062 426.117188 C 376.574219 426.605469 378.480469 426.089844 379.769531 424.765625 C 381.0625 423.441406 381.53125 421.523438 381 419.753906 C 367.660156 370.578125 361.207031 319.441406 360.585938 260.027344 C 360.59375 258.65625 360.039062 257.335938 359.058594 256.375 C 358.074219 255.414062 356.742188 254.894531 355.371094 254.929688 Z M 291.953125 315.609375 C 289.347656 315.652344 287.199219 317.65625 286.972656 320.253906 C 286.675781 323.296875 285.558594 333.609375 285.207031 336.699219 C 284.890625 338.554688 285.625 340.4375 287.121094 341.585938 C 288.617188 342.730469 290.625 342.957031 292.335938 342.167969 C 294.050781 341.382812 295.183594 339.710938 295.285156 337.828125 C 295.644531 334.660156 296.765625 324.550781 297.089844 321.265625 C 297.253906 319.808594 296.785156 318.355469 295.800781 317.273438 C 294.820312 316.191406 293.414062 315.585938 291.953125 315.609375 Z M 287.648438 353.339844 C 285.042969 353.253906 282.796875 355.160156 282.449219 357.742188 C 279.277344 379.035156 275.015625 399.5625 269.539062 419.753906 C 269.003906 421.523438 269.472656 423.441406 270.765625 424.765625 C 272.054688 426.089844 273.960938 426.605469 275.746094 426.117188 C 277.527344 425.625 278.902344 424.207031 279.335938 422.410156 C 284.917969 401.828125 289.277344 380.898438 292.507812 359.230469 C 292.742188 357.789062 292.34375 356.3125 291.414062 355.183594 C 290.480469 354.054688 289.109375 353.382812 287.648438 353.339844 Z M 287.648438 353.339844 "/>
<path style=" stroke:none;fill-rule:nonzero;fill:rgb(16.862745%,25.882353%,33.333333%);fill-opacity:1;" d="M 250.136719 446.828125 C 239.699219 446.828125 231.289062 453.984375 229.707031 463.46875 L 228.535156 463.46875 L 228.535156 487.371094 L 421.503906 487.371094 L 421.503906 463.46875 L 420.355469 463.46875 C 418.773438 453.980469 410.363281 446.828125 399.921875 446.828125 Z M 250.136719 456.984375 L 399.921875 456.984375 C 406.769531 456.984375 411.347656 461.355469 411.347656 465.910156 L 411.347656 468.308594 C 411.347656 467.621094 411.339844 467.792969 411.328125 468.472656 L 411.25 473.628906 L 411.347656 473.628906 L 411.347656 477.21875 L 238.691406 477.21875 L 238.691406 473.628906 L 238.710938 473.628906 L 238.710938 468.550781 C 238.710938 467.628906 238.691406 467.738281 238.691406 468.316406 L 238.691406 465.917969 C 238.691406 461.363281 243.289062 456.992188 250.136719 456.992188 Z M 250.136719 456.984375 "/>
<path style=" stroke:none;fill-rule:nonzero;fill:rgb(16.862745%,25.882353%,33.333333%);fill-opacity:1;" d="M 284.394531 233.546875 C 276.042969 233.546875 269.160156 240.429688 269.160156 248.78125 C 269.160156 257.132812 276.042969 264.015625 284.394531 264.015625 L 365.644531 264.015625 C 373.996094 264.015625 380.878906 257.132812 380.878906 248.78125 C 380.878906 240.429688 373.996094 233.546875 365.644531 233.546875 Z M 284.394531 243.703125 L 365.644531 243.703125 C 368.546875 243.703125 370.722656 245.878906 370.722656 248.78125 C 370.722656 251.679688 368.546875 253.859375 365.644531 253.859375 L 284.394531 253.859375 C 281.492188 253.859375 279.316406 251.679688 279.316406 248.78125 C 279.316406 245.878906 281.492188 243.703125 284.394531 243.703125 Z M 284.394531 243.703125 "/>
<path style=" stroke:none;fill-rule:nonzero;fill:rgb(16.862745%,25.882353%,33.333333%);fill-opacity:1;" d="M 325.851562 157.292969 C 323.046875 157.339844 320.808594 159.648438 320.855469 162.453125 L 320.855469 193.058594 C 320.828125 194.890625 321.789062 196.59375 323.371094 197.515625 C 324.953125 198.441406 326.910156 198.441406 328.492188 197.515625 C 330.074219 196.59375 331.035156 194.890625 331.011719 193.058594 L 331.011719 162.453125 C 331.03125 161.078125 330.496094 159.753906 329.523438 158.78125 C 328.550781 157.808594 327.226562 157.273438 325.851562 157.292969 Z M 325.851562 157.292969 "/>
<path style=" stroke:none;fill-rule:nonzero;fill:rgb(16.862745%,25.882353%,33.333333%);fill-opacity:1;" d="M 310.203125 172.847656 C 307.398438 172.984375 305.234375 175.367188 305.371094 178.171875 C 305.507812 180.976562 307.894531 183.140625 310.699219 183.003906 L 341.167969 183.003906 C 343 183.027344 344.703125 182.066406 345.625 180.484375 C 346.546875 178.902344 346.546875 176.945312 345.625 175.363281 C 344.703125 173.78125 343 172.820312 341.167969 172.847656 L 310.699219 172.847656 C 310.53125 172.839844 310.367188 172.839844 310.203125 172.847656 Z M 310.203125 172.847656 "/>
<path style=" stroke:none;fill-rule:nonzero;fill:rgb(16.862745%,25.882353%,33.333333%);fill-opacity:1;" d="M 270.371094 416.359375 C 259.207031 416.359375 250.058594 425.503906 250.058594 436.671875 C 250.058594 447.835938 259.207031 456.984375 270.371094 456.984375 L 380.382812 456.984375 C 391.546875 456.984375 400.695312 447.835938 400.695312 436.671875 C 400.695312 425.503906 391.546875 416.359375 380.382812 416.359375 L 357.789062 416.359375 C 355.957031 416.332031 354.253906 417.292969 353.332031 418.875 C 352.410156 420.457031 352.410156 422.414062 353.332031 423.996094 C 354.253906 425.578125 355.957031 426.539062 357.789062 426.515625 L 380.382812 426.515625 C 386.097656 426.515625 390.539062 430.957031 390.539062 436.671875 C 390.539062 442.386719 386.097656 446.828125 380.382812 446.828125 L 270.371094 446.828125 C 264.65625 446.828125 260.214844 442.386719 260.214844 436.671875 C 260.214844 430.957031 264.65625 426.515625 270.371094 426.515625 L 320.417969 426.515625 C 322.25 426.539062 323.953125 425.578125 324.875 423.996094 C 325.800781 422.414062 325.800781 420.457031 324.875 418.875 C 323.953125 417.292969 322.25 416.332031 320.417969 416.359375 Z M 335.769531 416.359375 C 332.964844 416.5 330.808594 418.890625 330.949219 421.695312 C 331.09375 424.5 333.480469 426.65625 336.285156 426.515625 L 341.386719 426.515625 C 343.214844 426.539062 344.917969 425.578125 345.84375 423.996094 C 346.765625 422.414062 346.765625 420.457031 345.84375 418.875 C 344.917969 417.292969 343.214844 416.332031 341.386719 416.359375 L 336.285156 416.359375 C 336.113281 416.347656 335.941406 416.347656 335.769531 416.359375 Z M 335.769531 416.359375 "/>
<path style=" stroke:none;fill-rule:nonzero;fill:rgb(16.862745%,25.882353%,33.333333%);fill-opacity:1;" d="M 326.089844 189.707031 C 325.4375 189.738281 324.800781 189.890625 324.207031 190.164062 L 283.582031 208.75 C 281.039062 209.914062 279.914062 212.910156 281.0625 215.457031 L 291.734375 239.359375 C 292.878906 241.921875 295.886719 243.074219 298.449219 241.929688 C 301.011719 240.785156 302.164062 237.777344 301.019531 235.214844 L 292.390625 215.890625 L 326.25 200.402344 L 354.296875 214.167969 L 357.589844 215.792969 L 355.585938 220.316406 L 348.703125 235.867188 C 347.894531 237.539062 348.058594 239.519531 349.136719 241.03125 C 350.214844 242.542969 352.03125 243.347656 353.875 243.125 C 355.71875 242.90625 357.296875 241.695312 357.988281 239.972656 L 364.871094 224.421875 L 368.023438 217.28125 L 368.839844 215.4375 C 369.949219 212.941406 368.890625 210.015625 366.4375 208.8125 L 358.78125 205.0625 L 328.550781 190.222656 C 327.789062 189.847656 326.941406 189.667969 326.089844 189.707031 Z M 326.089844 189.707031 "/>
<path style=" stroke:none;fill-rule:nonzero;fill:rgb(16.862745%,25.882353%,33.333333%);fill-opacity:1;" d="M 126.417969 477.335938 C 124.585938 477.308594 122.882812 478.269531 121.960938 479.851562 C 121.035156 481.433594 121.035156 483.390625 121.960938 484.972656 C 122.882812 486.554688 124.585938 487.515625 126.417969 487.492188 L 530.804688 487.492188 C 532.632812 487.515625 534.335938 486.554688 535.261719 484.972656 C 536.183594 483.390625 536.183594 481.433594 535.261719 479.851562 C 534.335938 478.269531 532.632812 477.308594 530.804688 477.335938 Z M 126.417969 477.335938 "/>
<path style=" stroke:none;fill-rule:nonzero;fill:rgb(16.862745%,25.882353%,33.333333%);fill-opacity:1;" d="M 45.78125 477.335938 C 43.949219 477.308594 42.246094 478.269531 41.324219 479.851562 C 40.402344 481.433594 40.402344 483.390625 41.324219 484.972656 C 42.246094 486.554688 43.949219 487.515625 45.78125 487.492188 L 103.703125 487.492188 C 105.535156 487.515625 107.238281 486.554688 108.164062 484.972656 C 109.085938 483.390625 109.085938 481.433594 108.164062 479.851562 C 107.238281 478.269531 105.535156 477.308594 103.703125 477.335938 Z M 45.78125 477.335938 "/>
<path style=" stroke:none;fill-rule:evenodd;fill:rgb(94.117647%,33.333333%,25.882353%);fill-opacity:1;" d="M 218.4375 497.648438 C 216.605469 497.621094 214.902344 498.582031 213.980469 500.164062 C 213.058594 501.746094 213.058594 503.703125 213.980469 505.285156 C 214.902344 506.867188 216.605469 507.828125 218.4375 507.804688 L 418.867188 507.804688 C 420.699219 507.828125 422.402344 506.867188 423.324219 505.285156 C 424.246094 503.703125 424.246094 501.746094 423.324219 500.164062 C 422.402344 498.582031 420.699219 497.621094 418.867188 497.648438 Z M 218.4375 497.648438 "/>
<path style=" stroke:none;fill-rule:evenodd;fill:rgb(94.117647%,33.333333%,25.882353%);fill-opacity:1;" d="M 248.808594 517.960938 C 246.976562 517.933594 245.273438 518.894531 244.351562 520.476562 C 243.425781 522.058594 243.425781 524.015625 244.351562 525.597656 C 245.273438 527.179688 246.976562 528.140625 248.808594 528.117188 L 302.246094 528.117188 C 304.078125 528.140625 305.78125 527.179688 306.707031 525.597656 C 307.628906 524.015625 307.628906 522.058594 306.707031 520.476562 C 305.78125 518.894531 304.078125 517.933594 302.246094 517.960938 Z M 248.808594 517.960938 "/>
<path style=" stroke:none;fill-rule:evenodd;fill:rgb(94.117647%,33.333333%,25.882353%);fill-opacity:1;" d="M 330.15625 517.960938 C 328.324219 517.933594 326.621094 518.894531 325.699219 520.476562 C 324.777344 522.058594 324.777344 524.015625 325.699219 525.597656 C 326.621094 527.179688 328.324219 528.140625 330.15625 528.117188 L 401.867188 528.117188 C 403.699219 528.140625 405.402344 527.179688 406.324219 525.597656 C 407.246094 524.015625 407.246094 522.058594 406.324219 520.476562 C 405.402344 518.894531 403.699219 517.933594 401.867188 517.960938 Z M 330.15625 517.960938 "/>
<path style=" stroke:none;fill-rule:evenodd;fill:rgb(94.117647%,33.333333%,25.882353%);fill-opacity:1;" d="M 279.375 538.273438 C 277.542969 538.246094 275.839844 539.207031 274.917969 540.789062 C 273.996094 542.371094 273.996094 544.328125 274.917969 545.910156 C 275.839844 547.492188 277.542969 548.453125 279.375 548.429688 L 331.328125 548.429688 C 333.160156 548.453125 334.863281 547.492188 335.785156 545.910156 C 336.710938 544.328125 336.710938 542.371094 335.785156 540.789062 C 334.863281 539.207031 333.160156 538.246094 331.328125 538.273438 Z M 279.375 538.273438 "/>
<path style=" stroke:none;fill-rule:evenodd;fill:rgb(94.117647%,33.333333%,25.882353%);fill-opacity:0.988235;" d="M 131.667969 275.164062 C 129.261719 275.164062 127.339844 277.183594 127.378906 279.589844 C 127.378906 282.609375 126.085938 283.980469 123.089844 283.980469 C 117.199219 283.878906 117.199219 292.777344 123.089844 292.695312 C 125.976562 292.695312 127.378906 293.496094 127.378906 296.898438 C 127.296875 302.789062 136.175781 302.789062 136.09375 296.898438 C 136.09375 293.804688 137.539062 292.695312 140.398438 292.695312 C 146.289062 292.796875 146.289062 283.898438 140.398438 283.980469 C 136.511719 283.980469 136.09375 281.757812 136.09375 279.589844 C 136.121094 277.132812 134.125 275.128906 131.667969 275.164062 Z M 131.667969 275.164062 "/>
<path style=" stroke:none;fill-rule:evenodd;fill:rgb(16.862745%,25.882353%,33.333333%);fill-opacity:1;" d="M 418.097656 109.644531 C 416.777344 109.664062 415.722656 110.753906 415.742188 112.074219 C 415.742188 113.734375 415.035156 114.484375 413.390625 114.484375 C 410.152344 114.484375 410.152344 119.3125 413.390625 119.269531 C 414.972656 119.269531 415.742188 119.703125 415.742188 121.574219 C 415.691406 124.8125 420.574219 124.8125 420.527344 121.574219 C 420.527344 119.878906 421.320312 119.269531 422.890625 119.269531 C 426.125 119.269531 426.125 114.4375 422.890625 114.484375 C 420.757812 114.484375 420.527344 113.265625 420.527344 112.074219 C 420.546875 110.722656 419.449219 109.625 418.097656 109.644531 Z M 418.097656 109.644531 "/>
<path style=" stroke:none;fill-rule:evenodd;fill:rgb(94.117647%,33.333333%,25.882353%);fill-opacity:0.988235;" d="M 395.738281 183.1875 C 393.984375 183.1875 392.585938 184.660156 392.613281 186.410156 C 392.613281 188.613281 391.671875 189.609375 389.488281 189.609375 C 385.195312 189.507812 385.195312 196.019531 389.488281 195.960938 C 391.59375 195.960938 392.613281 196.539062 392.613281 199.023438 C 392.550781 203.3125 399.023438 203.3125 398.960938 199.023438 C 398.960938 196.769531 400.015625 195.960938 402.097656 195.960938 C 406.390625 196.0625 406.390625 189.550781 402.097656 189.609375 C 399.269531 189.609375 398.960938 187.992188 398.960938 186.410156 C 398.980469 184.621094 397.53125 183.160156 395.738281 183.1875 Z M 395.738281 183.1875 "/>
<path style=" stroke:none;fill-rule:evenodd;fill:rgb(94.117647%,33.333333%,25.882353%);fill-opacity:0.988235;" d="M 526.914062 231.761719 C 525.59375 231.761719 524.539062 232.871094 524.558594 234.191406 C 524.558594 235.851562 523.851562 236.601562 522.203125 236.601562 C 518.96875 236.601562 518.96875 241.433594 522.203125 241.386719 C 523.789062 241.386719 524.558594 241.824219 524.558594 243.695312 C 524.507812 246.929688 529.386719 246.929688 529.34375 243.695312 C 529.34375 241.996094 530.136719 241.386719 531.707031 241.386719 C 534.941406 241.386719 534.941406 236.558594 531.707031 236.601562 C 529.574219 236.601562 529.34375 235.382812 529.34375 234.191406 C 529.363281 232.84375 528.261719 231.742188 526.914062 231.761719 Z M 526.914062 231.761719 "/>
<path style=" stroke:none;fill-rule:evenodd;fill:rgb(94.117647%,33.333333%,25.882353%);fill-opacity:1;" d="M 485.875 166.683594 C 484.121094 166.683594 482.722656 168.15625 482.75 169.90625 C 482.75 172.109375 481.808594 173.105469 479.625 173.105469 C 475.332031 173.003906 475.332031 179.515625 479.625 179.457031 C 481.730469 179.457031 482.75 180.035156 482.75 182.519531 C 482.6875 186.808594 489.160156 186.808594 489.097656 182.519531 C 489.097656 180.265625 490.152344 179.457031 492.234375 179.457031 C 496.527344 179.558594 496.527344 173.046875 492.234375 173.105469 C 489.40625 173.105469 489.097656 171.488281 489.097656 169.90625 C 489.117188 168.117188 487.667969 166.65625 485.875 166.683594 Z M 485.875 166.683594 "/>
<path style=" stroke:none;fill-rule:evenodd;fill:rgb(16.862745%,25.882353%,33.333333%);fill-opacity:1;" d="M 274.515625 93.882812 C 273.160156 93.90625 272.078125 95.019531 272.101562 96.375 C 272.101562 98.078125 271.375 98.847656 269.6875 98.847656 C 266.367188 98.796875 266.367188 103.800781 269.6875 103.753906 C 271.3125 103.753906 272.101562 104.203125 272.101562 106.121094 C 272.058594 109.441406 277.054688 109.441406 277.007812 106.121094 C 277.007812 104.382812 277.824219 103.753906 279.433594 103.753906 C 282.75 103.804688 282.75 98.800781 279.433594 98.847656 C 277.246094 98.847656 277.007812 97.597656 277.007812 96.375 C 277.019531 94.992188 275.902344 93.863281 274.515625 93.882812 Z M 274.515625 93.882812 "/>
<path style=" stroke:none;fill-rule:evenodd;fill:rgb(16.862745%,25.882353%,33.333333%);fill-opacity:1;" d="M 166.292969 125.453125 C 164.59375 125.453125 163.238281 126.878906 163.265625 128.578125 C 163.265625 130.710938 162.355469 131.675781 160.238281 131.675781 C 156.082031 131.574219 156.082031 137.882812 160.238281 137.824219 C 162.277344 137.824219 163.265625 138.394531 163.265625 140.792969 C 163.210938 144.949219 169.472656 144.949219 169.414062 140.792969 C 169.414062 138.609375 170.4375 137.824219 172.453125 137.824219 C 176.613281 137.925781 176.613281 131.617188 172.453125 131.675781 C 169.710938 131.675781 169.414062 130.105469 169.414062 128.578125 C 169.4375 126.84375 168.027344 125.429688 166.292969 125.453125 Z M 166.292969 125.453125 "/>
</g>
</svg>
