<?xml version="1.0" encoding="UTF-8"?>
<svg xmlns="http://www.w3.org/2000/svg" xmlns:xlink="http://www.w3.org/1999/xlink" width="500pt" height="500pt" viewBox="0 0 500 500" version="1.1">
<defs>
<clipPath id="clip1">
  <path d="M 20.824219 22.457031 L 479.175781 22.457031 L 479.175781 480.808594 L 20.824219 480.808594 Z M 20.824219 22.457031 "/>
</clipPath>
<filter id="alpha" filterUnits="objectBoundingBox" x="0%" y="0%" width="100%" height="100%">
  <feColorMatrix type="matrix" in="SourceGraphic" values="0 0 0 0 1 0 0 0 0 1 0 0 0 0 1 0 0 0 1 0"/>
</filter>
<mask id="mask0">
  <g filter="url(#alpha)">
<rect x="0" y="0" width="500" height="500" style="fill:rgb(0%,0%,0%);fill-opacity:0.301961;stroke:none;"/>
  </g>
</mask>
<clipPath id="clip2">
  <rect x="0" y="0" width="500" height="500"/>
</clipPath>
<g id="surface5" clip-path="url(#clip2)">
<path style=" stroke:none;fill-rule:nonzero;fill:rgb(32.156863%,80%,60%);fill-opacity:1;" d="M 306.792969 361.136719 C 302.917969 400.578125 274.496094 433.242188 235.972656 442.539062 C 197.445312 451.832031 157.257812 435.71875 135.824219 402.382812 C 114.390625 369.046875 116.410156 325.796875 140.855469 294.605469 L 185.542969 294.605469 C 189.5 294.605469 192.707031 291.398438 192.707031 287.441406 L 192.707031 261.300781 C 221.164062 254.566406 251.136719 261.59375 273.632812 280.28125 L 242.839844 280.28125 C 238.882812 280.28125 235.675781 283.488281 235.675781 287.441406 C 235.675781 291.398438 238.882812 294.605469 242.839844 294.605469 L 287.527344 294.605469 C 294.847656 303.964844 300.316406 314.636719 303.640625 326.042969 C 300.375 324.234375 296.703125 323.273438 292.96875 323.25 L 257.160156 323.25 C 245.296875 323.25 235.675781 332.871094 235.675781 344.734375 C 235.675781 356.601562 245.296875 366.222656 257.160156 366.222656 L 292.96875 366.222656 C 298.03125 366.207031 302.929688 364.40625 306.792969 361.136719 Z M 306.792969 361.136719 "/>
</g>
<mask id="mask1">
  <g filter="url(#alpha)">
<rect x="0" y="0" width="500" height="500" style="fill:rgb(0%,0%,0%);fill-opacity:0.301961;stroke:none;"/>
  </g>
</mask>
<linearGradient id="linear0" gradientUnits="userSpaceOnUse" x1="30" y1="37" x2="37.24" y2="37" gradientTransform="matrix(7.161719,0,0,7.161719,20.824999,22.458447)">
<stop offset="0" style="stop-color:rgb(100%,56.862745%,17.647059%);stop-opacity:1;"/>
<stop offset="0.62" style="stop-color:rgb(100%,20.392157%,22.352941%);stop-opacity:1;"/>
<stop offset="1" style="stop-color:rgb(100%,0%,24.705882%);stop-opacity:1;"/>
</linearGradient>
<clipPath id="clip3">
  <rect x="0" y="0" width="500" height="500"/>
</clipPath>
<g id="surface8" clip-path="url(#clip3)">
<path style=" stroke:none;fill-rule:nonzero;fill:url(#linear0);" d="M 235.675781 287.441406 C 235.675781 283.488281 238.882812 280.28125 242.839844 280.28125 L 273.632812 280.28125 C 278.796875 284.511719 283.457031 289.316406 287.527344 294.605469 L 242.839844 294.605469 C 238.882812 294.605469 235.675781 291.398438 235.675781 287.441406 Z M 235.675781 287.441406 "/>
</g>
</defs>
<g id="surface1">
<g clip-path="url(#clip1)" clip-rule="nonzero">
<use xlink:href="#surface5" mask="url(#mask0)"/>
<use xlink:href="#surface8" mask="url(#mask1)"/>
</g>
<path style=" stroke:none;fill-rule:nonzero;fill:rgb(32.156863%,80%,60%);fill-opacity:1;" d="M 92.441406 137.046875 L 85.28125 137.046875 C 81.324219 137.046875 78.117188 133.839844 78.117188 129.882812 C 78.117188 125.929688 81.324219 122.722656 85.28125 122.722656 L 92.441406 122.722656 C 96.398438 122.722656 99.605469 125.929688 99.605469 129.882812 C 99.605469 133.839844 96.398438 137.046875 92.441406 137.046875 Z M 128.25 137.046875 L 121.089844 137.046875 C 117.132812 137.046875 113.925781 133.839844 113.925781 129.882812 C 113.925781 125.929688 117.132812 122.722656 121.089844 122.722656 L 128.25 122.722656 C 132.207031 122.722656 135.414062 125.929688 135.414062 129.882812 C 135.414062 133.839844 132.207031 137.046875 128.25 137.046875 Z M 164.058594 137.046875 L 156.898438 137.046875 C 152.941406 137.046875 149.734375 133.839844 149.734375 129.882812 C 149.734375 125.929688 152.941406 122.722656 156.898438 122.722656 L 164.058594 122.722656 C 168.015625 122.722656 171.222656 125.929688 171.222656 129.882812 C 171.222656 133.839844 168.015625 137.046875 164.058594 137.046875 Z M 164.058594 137.046875 "/>
<path style=" stroke:none;fill-rule:nonzero;fill:rgb(13.72549%,12.156863%,12.54902%);fill-opacity:1;" d="M 185.542969 165.691406 L 56.632812 165.691406 C 52.679688 165.691406 49.472656 162.488281 49.472656 158.53125 C 49.472656 154.574219 52.679688 151.371094 56.632812 151.371094 L 183.394531 151.371094 L 203.089844 138.261719 C 204.257812 137.480469 205.625 137.058594 207.03125 137.046875 L 443.367188 137.046875 C 447.320312 137.046875 450.527344 140.253906 450.527344 144.207031 C 450.527344 148.164062 447.320312 151.371094 443.367188 151.371094 L 209.179688 151.371094 L 189.484375 164.476562 C 188.316406 165.257812 186.949219 165.683594 185.542969 165.691406 Z M 185.542969 165.691406 "/>
<path style=" stroke:none;fill-rule:nonzero;fill:rgb(32.156863%,80%,60%);fill-opacity:1;" d="M 211.757812 239.101562 L 154.460938 188.96875 C 151.757812 186.59375 147.710938 186.59375 145.007812 188.96875 L 87.714844 239.101562 C 85.484375 241.070312 84.699219 244.214844 85.75 247 C 86.800781 249.785156 89.464844 251.628906 92.441406 251.632812 L 106.765625 251.632812 L 106.765625 287.441406 C 106.765625 291.398438 109.972656 294.605469 113.925781 294.605469 L 185.542969 294.605469 C 189.5 294.605469 192.707031 291.398438 192.707031 287.441406 L 192.707031 251.632812 L 207.03125 251.632812 C 210.007812 251.628906 212.671875 249.785156 213.71875 247 C 214.769531 244.214844 213.988281 241.070312 211.757812 239.101562 Z M 178.382812 280.28125 L 121.089844 280.28125 L 121.089844 244.472656 C 121.089844 240.515625 117.882812 237.308594 113.925781 237.308594 L 111.492188 237.308594 L 149.734375 203.863281 L 187.980469 237.308594 L 185.542969 237.308594 C 181.589844 237.308594 178.382812 240.515625 178.382812 244.472656 Z M 178.382812 280.28125 "/>
<path style=" stroke:none;fill-rule:nonzero;fill:rgb(32.156863%,80%,60%);fill-opacity:1;" d="M 164.058594 258.796875 L 164.058594 287.441406 C 164.058594 291.398438 160.851562 294.605469 156.898438 294.605469 L 142.574219 294.605469 C 142.050781 294.679688 141.519531 294.679688 141 294.605469 C 137.667969 293.855469 135.328125 290.855469 135.414062 287.441406 L 135.414062 258.796875 C 135.414062 254.839844 138.617188 251.632812 142.574219 251.632812 L 156.898438 251.632812 C 160.851562 251.632812 164.058594 254.839844 164.058594 258.796875 Z M 164.058594 258.796875 "/>
<path style=" stroke:none;fill-rule:nonzero;fill:rgb(13.72549%,12.156863%,12.54902%);fill-opacity:1;" d="M 400.394531 222.988281 L 242.839844 222.988281 C 238.882812 222.988281 235.675781 219.78125 235.675781 215.824219 C 235.675781 211.871094 238.882812 208.664062 242.839844 208.664062 L 400.394531 208.664062 C 404.351562 208.664062 407.558594 211.871094 407.558594 215.824219 C 407.558594 219.78125 404.351562 222.988281 400.394531 222.988281 Z M 400.394531 258.796875 L 242.839844 258.796875 C 238.882812 258.796875 235.675781 255.589844 235.675781 251.632812 C 235.675781 247.679688 238.882812 244.472656 242.839844 244.472656 L 400.394531 244.472656 C 404.351562 244.472656 407.558594 247.679688 407.558594 251.632812 C 407.558594 255.589844 404.351562 258.796875 400.394531 258.796875 Z M 371.75 287.441406 C 371.75 291.398438 368.542969 294.605469 364.585938 294.605469 L 242.839844 294.605469 C 238.882812 294.605469 235.675781 291.398438 235.675781 287.441406 C 235.675781 283.488281 238.882812 280.28125 242.839844 280.28125 L 364.585938 280.28125 C 368.542969 280.28125 371.75 283.488281 371.75 287.441406 Z M 371.75 287.441406 "/>
<path style=" stroke:none;fill-rule:nonzero;fill:rgb(32.156863%,80%,60%);fill-opacity:1;" d="M 386.074219 366.222656 L 350.265625 366.222656 C 338.398438 366.222656 328.777344 356.601562 328.777344 344.734375 C 328.777344 332.871094 338.398438 323.25 350.265625 323.25 L 386.074219 323.25 C 397.9375 323.25 407.558594 332.871094 407.558594 344.734375 C 407.558594 356.601562 397.9375 366.222656 386.074219 366.222656 Z M 350.265625 337.574219 C 346.308594 337.574219 343.101562 340.78125 343.101562 344.734375 C 343.101562 348.691406 346.308594 351.898438 350.265625 351.898438 L 386.074219 351.898438 C 390.027344 351.898438 393.234375 348.691406 393.234375 344.734375 C 393.234375 340.78125 390.027344 337.574219 386.074219 337.574219 Z M 303.640625 326.042969 C 300.375 324.234375 296.703125 323.273438 292.96875 323.25 L 257.160156 323.25 C 245.296875 323.25 235.675781 332.871094 235.675781 344.734375 C 235.675781 356.601562 245.296875 366.222656 257.160156 366.222656 L 292.96875 366.222656 C 304.835938 366.222656 314.457031 356.601562 314.457031 344.734375 C 314.472656 337.015625 310.34375 329.878906 303.640625 326.042969 Z M 292.96875 351.898438 L 257.160156 351.898438 C 253.207031 351.898438 250 348.691406 250 344.734375 C 250 340.78125 253.207031 337.574219 257.160156 337.574219 L 292.96875 337.574219 C 296.925781 337.574219 300.132812 340.78125 300.132812 344.734375 C 300.132812 348.691406 296.925781 351.898438 292.96875 351.898438 Z M 292.96875 351.898438 "/>
<path style=" stroke:none;fill-rule:nonzero;fill:rgb(13.72549%,12.156863%,12.54902%);fill-opacity:1;" d="M 443.367188 409.191406 L 56.632812 409.191406 C 52.679688 409.191406 49.472656 405.984375 49.472656 402.03125 L 49.472656 101.238281 C 49.472656 97.28125 52.679688 94.074219 56.632812 94.074219 L 443.367188 94.074219 C 447.320312 94.074219 450.527344 97.28125 450.527344 101.238281 L 450.527344 402.03125 C 450.527344 405.984375 447.320312 409.191406 443.367188 409.191406 Z M 63.796875 394.867188 L 436.203125 394.867188 L 436.203125 108.398438 L 63.796875 108.398438 Z M 63.796875 394.867188 "/>
</g>
</svg>
